<svg xmlns="http://www.w3.org/2000/svg" version="1.0" viewBox="0 0 3000 3000"><path fill="#BF0000" fill-opacity=".5" d="M1498.6 669.8c-.2.4.4.8 1.4.8s1.6-.4 1.4-.8c-.3-.4-.9-.8-1.4-.8s-1.1.4-1.4.8m236.2 1427.9c4.6.2 11.8.2 16 0 4.2-.1.5-.3-8.3-.3s-12.3.2-7.7.3m29.5 0c3.1.2 8.3.2 11.5 0 3.1-.2.5-.3-5.8-.3s-8.9.1-5.7.3m27.5 0c5.7.2 14.7.2 20 0 5.3-.1.7-.3-10.3-.3s-15.4.2-9.7.3m44.5 0c8.1.2 21.3.2 29.5 0 8.1-.1 1.4-.3-14.8-.3s-22.9.2-14.7.3m47.5 0c1.7.2 4.7.2 6.5 0 1.7-.2.3-.4-3.3-.4s-5 .2-3.2.4m37.5 0c15.3.2 40.1.2 55 0 15-.1 2.5-.2-27.8-.2-30.2 0-42.5.1-27.2.2"/><path fill="#BF0000" fill-opacity=".2" d="M1863.8 1756.7c.7.3 1.6.2 1.9-.1.4-.3-.2-.6-1.3-.5-1.1 0-1.4.3-.6.6m-956 341c.7.3 1.6.2 1.9-.1.4-.3-.2-.6-1.3-.5-1.1 0-1.4.3-.6.6m4 0c.7.3 1.6.2 1.9-.1.4-.3-.2-.6-1.3-.5-1.1 0-1.4.3-.6.6m9 0c.7.3 1.6.2 1.9-.1.4-.3-.2-.6-1.3-.5-1.1 0-1.4.3-.6.6m14 0c.7.3 1.6.2 1.9-.1.4-.3-.2-.6-1.3-.5-1.1 0-1.4.3-.6.6m4 0c.6.2 1.8.2 2.5 0 .6-.3.1-.5-1.3-.5s-1.9.2-1.2.5m5 0c.6.2 1.8.2 2.5 0 .6-.3.1-.5-1.3-.5s-1.9.2-1.2.5m8 0c.7.3 1.6.2 1.9-.1.4-.3-.2-.6-1.3-.5-1.1 0-1.4.3-.6.6m5 0c.6.2 1.8.2 2.5 0 .6-.3.1-.5-1.3-.5s-1.9.2-1.2.5m5 0c.7.3 1.6.2 1.9-.1.4-.3-.2-.6-1.3-.5-1.1 0-1.4.3-.6.6m8 0c.6.2 1.8.2 2.5 0 .6-.3.1-.5-1.3-.5s-1.9.2-1.2.5m6 0c.7.3 1.6.2 1.9-.1.4-.3-.2-.6-1.3-.5-1.1 0-1.4.3-.6.6m4 0c.7.3 1.6.2 1.9-.1.4-.3-.2-.6-1.3-.5-1.1 0-1.4.3-.6.6m8 0c.6.2 1.8.2 2.5 0 .6-.3.1-.5-1.3-.5s-1.9.2-1.2.5m5 0c.6.2 1.8.2 2.5 0 .6-.3.1-.5-1.3-.5s-1.9.2-1.2.5m5 0c.7.3 1.6.2 1.9-.1.4-.3-.2-.6-1.3-.5-1.1 0-1.4.3-.6.6m8 0c.7.3 1.6.2 1.9-.1.4-.3-.2-.6-1.3-.5-1.1 0-1.4.3-.6.6m5 0c.7.3 1.6.2 1.9-.1.4-.3-.2-.6-1.3-.5-1.1 0-1.4.3-.6.6m5 0c.7.3 1.6.2 1.9-.1.4-.3-.2-.6-1.3-.5-1.1 0-1.4.3-.6.6m4 0c.7.3 1.6.2 1.9-.1.4-.3-.2-.6-1.3-.5-1.1 0-1.4.3-.6.6m4 0c.6.2 1.8.2 2.5 0 .6-.3.1-.5-1.3-.5s-1.9.2-1.2.5m5 0c.7.3 1.6.2 1.9-.1.4-.3-.2-.6-1.3-.5-1.1 0-1.4.3-.6.6m5 0c.7.3 1.6.2 1.9-.1.4-.3-.2-.6-1.3-.5-1.1 0-1.4.3-.6.6m4 0c.7.3 1.6.2 1.9-.1.4-.3-.2-.6-1.3-.5-1.1 0-1.4.3-.6.6m4 0c.6.2 1.8.2 2.5 0 .6-.3.1-.5-1.3-.5s-1.9.2-1.2.5m5 0c.7.3 1.6.2 1.9-.1.4-.3-.2-.6-1.3-.5-1.1 0-1.4.3-.6.6m18 0c.7.3 1.6.2 1.9-.1.4-.3-.2-.6-1.3-.5-1.1 0-1.4.3-.6.6m9 0c.7.3 1.6.2 1.9-.1.4-.3-.2-.6-1.3-.5-1.1 0-1.4.3-.6.6m4 0c.7.3 1.6.2 1.9-.1.4-.3-.2-.6-1.3-.5-1.1 0-1.4.3-.6.6m5 0c.7.3 1.6.2 1.9-.1.4-.3-.2-.6-1.3-.5-1.1 0-1.4.3-.6.6m9 0c.7.3 1.6.2 1.9-.1.4-.3-.2-.6-1.3-.5-1.1 0-1.4.3-.6.6m9 0c.7.3 1.6.2 1.9-.1.4-.3-.2-.6-1.3-.5-1.1 0-1.4.3-.6.6m4 0c.6.2 1.8.2 2.5 0 .6-.3.1-.5-1.3-.5s-1.9.2-1.2.5m5 0c.6.2 1.8.2 2.5 0 .6-.3.1-.5-1.3-.5s-1.9.2-1.2.5m18 0c.7.3 1.6.2 1.9-.1.4-.3-.2-.6-1.3-.5-1.1 0-1.4.3-.6.6m8 0c.6.2 1.8.2 2.5 0 .6-.3.1-.5-1.3-.5s-1.9.2-1.2.5m6 0c.7.3 1.6.2 1.9-.1.4-.3-.2-.6-1.3-.5-1.1 0-1.4.3-.6.6m4 0c.6.2 1.8.2 2.5 0 .6-.3.1-.5-1.3-.5s-1.9.2-1.2.5m9 0c.7.3 1.6.2 1.9-.1.4-.3-.2-.6-1.3-.5-1.1 0-1.4.3-.6.6m4 0c.7.3 1.6.2 1.9-.1.4-.3-.2-.6-1.3-.5-1.1 0-1.4.3-.6.6m5 0c.7.3 1.6.2 1.9-.1.4-.3-.2-.6-1.3-.5-1.1 0-1.4.3-.6.6m8 0c.6.2 1.8.2 2.5 0 .6-.3.1-.5-1.3-.5s-1.9.2-1.2.5m5 0c.6.2 1.8.2 2.5 0 .6-.3.1-.5-1.3-.5s-1.9.2-1.2.5m5 0c.7.3 1.6.2 1.9-.1.4-.3-.2-.6-1.3-.5-1.1 0-1.4.3-.6.6m13 0c.7.3 1.6.2 1.9-.1.4-.3-.2-.6-1.3-.5-1.1 0-1.4.3-.6.6m5 0c.7.3 1.6.2 1.9-.1.4-.3-.2-.6-1.3-.5-1.1 0-1.4.3-.6.6m8 0c.6.2 1.8.2 2.5 0 .6-.3.1-.5-1.3-.5s-1.9.2-1.2.5m18 0c.6.2 1.8.2 2.5 0 .6-.3.1-.5-1.3-.5s-1.9.2-1.2.5m5 0c.7.3 1.6.2 1.9-.1.4-.3-.2-.6-1.3-.5-1.1 0-1.4.3-.6.6m442 0c.7.3 1.6.2 1.9-.1.4-.3-.2-.6-1.3-.5-1.1 0-1.4.3-.6.6m4 0c.6.2 1.8.2 2.5 0 .6-.3.1-.5-1.3-.5s-1.9.2-1.2.5m18 0c.6.2 1.8.2 2.5 0 .6-.3.1-.5-1.3-.5s-1.9.2-1.2.5m9 0c.7.3 1.6.2 1.9-.1.4-.3-.2-.6-1.3-.5-1.1 0-1.4.3-.6.6m5 0c.7.3 1.6.2 1.9-.1.4-.3-.2-.6-1.3-.5-1.1 0-1.4.3-.6.6m13 0c.7.3 1.6.2 1.9-.1.4-.3-.2-.6-1.3-.5-1.1 0-1.4.3-.6.6m284 0c.7.3 1.6.2 1.9-.1.4-.3-.2-.6-1.3-.5-1.1 0-1.4.3-.6.6m5 0c.7.3 1.6.2 1.9-.1.4-.3-.2-.6-1.3-.5-1.1 0-1.4.3-.6.6m7 0c.6.2 1.8.2 2.5 0 .6-.3.1-.5-1.3-.5s-1.9.2-1.2.5m5 0c.6.2 1.8.2 2.5 0 .6-.3.1-.5-1.3-.5s-1.9.2-1.2.5m5 0c.7.3 1.6.2 1.9-.1.4-.3-.2-.6-1.3-.5-1.1 0-1.4.3-.6.6m14 0c.7.3 1.6.2 1.9-.1.4-.3-.2-.6-1.3-.5-1.1 0-1.4.3-.6.6m9 0c.7.3 1.6.2 1.9-.1.4-.3-.2-.6-1.3-.5-1.1 0-1.4.3-.6.6m4 0c.7.3 1.6.2 1.9-.1.4-.3-.2-.6-1.3-.5-1.1 0-1.4.3-.6.6m-579 192c.7.3 1.6.2 1.9-.1.4-.3-.2-.6-1.3-.5-1.1 0-1.4.3-.6.6m41 0c.7.3 1.6.2 1.9-.1.4-.3-.2-.6-1.3-.5-1.1 0-1.4.3-.6.6m144 0c.7.3 1.6.2 1.9-.1.4-.3-.2-.6-1.3-.5-1.1 0-1.4.3-.6.6m40 0c.7.3 1.6.2 1.9-.1.4-.3-.2-.6-1.3-.5-1.1 0-1.4.3-.6.6m63.5 0c.9.2 2.3.2 3 0 .6-.3-.1-.5-1.8-.5-1.6 0-2.2.2-1.2.5"/><path fill="#BF0000" fill-opacity=".7" d="M1359.2 912.2c-76.6 132.6-139.1 241.2-138.9 241.4s63-108.1 139.5-240.8c76.6-132.6 139.1-241.2 138.9-241.4s-63 108.2-139.5 240.8m142-240.6c.5 1.9 278.2 482.4 278.5 482 .3-.3-272.9-474.1-276.9-480.1-1.1-1.7-1.8-2.5-1.6-1.9M1220 1156.3c0 1.2 186.4 323.7 186.8 323.2.4-.4-184.2-321-186-323-.4-.5-.8-.6-.8-.2m443.6 200.3c-63.7 110.3-115.7 200.7-115.4 200.9.2.2 52.5-89.8 116.1-200.2 63.7-110.3 115.7-200.7 115.4-200.9-.2-.2-52.5 89.9-116.1 200.2m-1050-118.1c-.9 2.6-.7 3.2.5 1.2.6-1 .9-2.1.6-2.3-.2-.3-.7.2-1.1 1.1m556.4-.5c0 .5.5 1 1.1 1 .5 0 .7-.5.4-1-.3-.6-.8-1-1.1-1-.2 0-.4.4-.4 1m657.5 0c-.3.5-.1 1 .4 1 .6 0 1.1-.5 1.1-1 0-.6-.2-1-.4-1-.3 0-.8.4-1.1 1m556.5-.5c0 .5.5 1.7 1 2.5s1 1 1 .5c0-.6-.5-1.7-1-2.5s-1-1.1-1-.5m-1208 6.1c0 1.3 1.8 3.9 2.4 3.4.2-.3-.2-1.4-1-2.4-.8-1.1-1.4-1.6-1.4-1m645.2 1.4c-.7 1.1-.8 2-.3 2 .9 0 2.4-3 1.8-3.6-.1-.2-.8.6-1.5 1.6m-1205.7 0c.3.5.8 1 1.1 1 .2 0 .4-.5.4-1 0-.6-.5-1-1.1-1-.5 0-.7.4-.4 1m1766.5.1c0 .5.5.7 1 .4.6-.3 1-.8 1-1.1 0-.2-.4-.4-1-.4-.5 0-1 .5-1 1.1M619.5 1252c.3.5.8 1 1.1 1 .2 0 .4-.5.4-1 0-.6-.5-1-1.1-1-.5 0-.7.4-.4 1m1758.5.1c0 .5.5.7 1 .4.6-.3 1-.8 1-1.1 0-.2-.4-.4-1-.4-.5 0-1 .5-1 1.1m-1194 5.9c0 .5.5 1 1.1 1 .5 0 .7-.5.4-1-.3-.6-.8-1-1.1-1-.2 0-.4.4-.4 1m629.5 0c-.3.5-.1 1 .4 1 .6 0 1.1-.5 1.1-1 0-.6-.2-1-.4-1-.3 0-.8.4-1.1 1m-626.5 4.6c0 1.3 1.8 3.9 2.4 3.4.2-.3-.2-1.4-1-2.4-.8-1.1-1.4-1.6-1.4-1m623.2 1.4c-.7 1.1-.8 2-.3 2 .9 0 2.4-3 1.8-3.6-.1-.2-.8.6-1.5 1.6m-1183 1c.7 1 1.4 1.8 1.5 1.6.6-.6-.9-3.6-1.8-3.6-.5 0-.4.9.3 2m1743.4-.4c-.9 2.4-.2 2.6 1.2.4.7-1.1.8-2 .3-2s-1.2.7-1.5 1.6m-1179.6 5c0 1.3 1.8 3.9 2.4 3.4.2-.3-.2-1.4-1-2.4-.8-1.1-1.4-1.6-1.4-1m615.2 1.4c-.7 1.1-.8 2-.3 2 .9 0 2.4-3 1.8-3.6-.1-.2-.8.6-1.5 1.6m-1175.7 0c.3.5.8 1 1.1 1 .2 0 .4-.5.4-1 0-.6-.5-1-1.1-1-.5 0-.7.4-.4 1m1736.5.1c0 .5.5.7 1 .4.6-.3 1-.8 1-1.1 0-.2-.4-.4-1-.4-.5 0-1 .5-1 1.1M1199 1284c0 .5.5 1 1.1 1 .5 0 .7-.5.4-1-.3-.6-.8-1-1.1-1-.2 0-.4.4-.4 1m599.5 0c-.3.5-.1 1 .4 1 .6 0 1.1-.5 1.1-1 0-.6-.2-1-.4-1-.3 0-.8.4-1.1 1m-596.5 4.6c0 1.3 1.8 3.9 2.4 3.4.2-.3-.2-1.4-1-2.4-.8-1.1-1.4-1.6-1.4-1m593.2 1.4c-.7 1.1-.8 2-.3 2 .9 0 2.4-3 1.8-3.6-.1-.2-.8.6-1.5 1.6m-1153 1c.7 1 1.4 1.8 1.5 1.6.6-.6-.9-3.6-1.8-3.6-.5 0-.4.9.3 2m1713.4-.4c-.9 2.4-.2 2.6 1.2.4.7-1.1.8-2 .3-2s-1.2.7-1.5 1.6m-1149.6 5c0 1.3 1.8 3.9 2.4 3.4.2-.3-.2-1.4-1-2.4-.8-1.1-1.4-1.6-1.4-1m585.2 1.4c-.7 1.1-.8 2-.3 2 .9 0 2.4-3 1.8-3.6-.1-.2-.8.6-1.5 1.6m-1145.7 0c.3.5.8 1 1.1 1 .2 0 .4-.5.4-1 0-.6-.5-1-1.1-1-.5 0-.7.4-.4 1m1706.5.1c0 .5.5.7 1 .4.6-.3 1-.8 1-1.1 0-.2-.4-.4-1-.4-.5 0-1 .5-1 1.1M1214 1310c0 .5.5 1 1.1 1 .5 0 .7-.5.4-1-.3-.6-.8-1-1.1-1-.2 0-.4.4-.4 1m569.5 0c-.3.5-.1 1 .4 1 .6 0 1.1-.5 1.1-1 0-.6-.2-1-.4-1-.3 0-.8.4-1.1 1m-566.5 4.6c0 1.3 1.8 3.9 2.4 3.4.2-.3-.2-1.4-1-2.4-.8-1.1-1.4-1.6-1.4-1m563.2 1.4c-.7 1.1-.8 2-.3 2 .9 0 2.4-3 1.8-3.6-.1-.2-.8.6-1.5 1.6m-1123.7 0c.3.5.8 1 1.1 1 .2 0 .4-.5.4-1 0-.6-.5-1-1.1-1-.5 0-.7.4-.4 1m1684.5.1c0 .5.5.7 1 .4.6-.3 1-.8 1-1.1 0-.2-.4-.4-1-.4-.5 0-1 .5-1 1.1M660.5 1323c.3.5.8 1 1.1 1 .2 0 .4-.5.4-1 0-.6-.5-1-1.1-1-.5 0-.7.4-.4 1m1676.5.1c0 .5.5.7 1 .4.6-.3 1-.8 1-1.1 0-.2-.4-.4-1-.4-.5 0-1 .5-1 1.1m-1112 5.9c0 .5.5 1 1.1 1 .5 0 .7-.5.4-1-.3-.6-.8-1-1.1-1-.2 0-.4.4-.4 1m547.5 0c-.3.5-.1 1 .4 1 .6 0 1.1-.5 1.1-1 0-.6-.2-1-.4-1-.3 0-.8.4-1.1 1m-544.5 4.6c0 1.3 1.8 3.9 2.4 3.4.2-.3-.2-1.4-1-2.4-.8-1.1-1.4-1.6-1.4-1m541.2 1.4c-.7 1.1-.8 2-.3 2 .9 0 2.4-3 1.8-3.6-.1-.2-.8.6-1.5 1.6m-1101 1c.7 1 1.4 1.8 1.5 1.6.6-.6-.9-3.6-1.8-3.6-.5 0-.4.9.3 2m1661.4-.4c-.9 2.4-.2 2.6 1.2.4.7-1.1.8-2 .3-2s-1.2.7-1.5 1.6m-1097.6 5c0 1.3 1.8 3.9 2.4 3.4.2-.3-.2-1.4-1-2.4-.8-1.1-1.4-1.6-1.4-1m533.2 1.4c-.7 1.1-.8 2-.3 2 .9 0 2.4-3 1.8-3.6-.1-.2-.8.6-1.5 1.6m-1093.7 0c.3.5.8 1 1.1 1 .2 0 .4-.5.4-1 0-.6-.5-1-1.1-1-.5 0-.7.4-.4 1m1654.5.1c0 .5.5.7 1 .4.6-.3 1-.8 1-1.1 0-.2-.4-.4-1-.4-.5 0-1 .5-1 1.1M675.5 1349c.3.5.8 1 1.1 1 .2 0 .4-.5.4-1 0-.6-.5-1-1.1-1-.5 0-.7.4-.4 1m1646.5.1c0 .5.5.7 1 .4.6-.3 1-.8 1-1.1 0-.2-.4-.4-1-.4-.5 0-1 .5-1 1.1m-1082 5.9c0 .5.5 1 1.1 1 .5 0 .7-.5.4-1-.3-.6-.8-1-1.1-1-.2 0-.4.4-.4 1m517.5 0c-.3.5-.1 1 .4 1 .6 0 1.1-.5 1.1-1 0-.6-.2-1-.4-1-.3 0-.8.4-1.1 1m-514.5 4.6c0 1.3 1.8 3.9 2.4 3.4.2-.3-.2-1.4-1-2.4-.8-1.1-1.4-1.6-1.4-1m511.2 1.4c-.7 1.1-.8 2-.3 2 .9 0 2.4-3 1.8-3.6-.1-.2-.8.6-1.5 1.6m-1071 1c.7 1 1.4 1.8 1.5 1.6.6-.6-.9-3.6-1.8-3.6-.5 0-.4.9.3 2m1631.4-.4c-.9 2.4-.2 2.6 1.2.4.7-1.1.8-2 .3-2s-1.2.7-1.5 1.6m-1067.6 5c0 1.3 1.8 3.9 2.4 3.4.2-.3-.2-1.4-1-2.4-.8-1.1-1.4-1.6-1.4-1m503.2 1.4c-.7 1.1-.8 2-.3 2 .9 0 2.4-3 1.8-3.6-.1-.2-.8.6-1.5 1.6m-1063.7 0c.3.5.8 1 1.1 1 .2 0 .4-.5.4-1 0-.6-.5-1-1.1-1-.5 0-.7.4-.4 1m1624.5.1c0 .5.5.7 1 .4.6-.3 1-.8 1-1.1 0-.2-.4-.4-1-.4-.5 0-1 .5-1 1.1M1255 1381c0 .5.5 1 1.1 1 .5 0 .7-.5.4-1-.3-.6-.8-1-1.1-1-.2 0-.4.4-.4 1m487.5 0c-.3.5-.1 1 .4 1 .6 0 1.1-.5 1.1-1 0-.6-.2-1-.4-1-.3 0-.8.4-1.1 1m-484.5 4.6c0 1.3 1.8 3.9 2.4 3.4.2-.3-.2-1.4-1-2.4-.8-1.1-1.4-1.6-1.4-1m481.2 1.4c-.7 1.1-.8 2-.3 2 .9 0 2.4-3 1.8-3.6-.1-.2-.8.6-1.5 1.6m-1041 1c.7 1 1.4 1.8 1.5 1.6.6-.6-.9-3.6-1.8-3.6-.5 0-.4.9.3 2m1601.4-.4c-.9 2.4-.2 2.6 1.2.4.7-1.1.8-2 .3-2s-1.2.7-1.5 1.6m-1037.6 5c0 1.3 1.8 3.9 2.4 3.4.2-.3-.2-1.4-1-2.4-.8-1.1-1.4-1.6-1.4-1m473.2 1.4c-.7 1.1-.8 2-.3 2 .9 0 2.4-3 1.8-3.6-.1-.2-.8.6-1.5 1.6m-1033.7 0c.3.5.8 1 1.1 1 .2 0 .4-.5.4-1 0-.6-.5-1-1.1-1-.5 0-.7.4-.4 1m1594.5.1c0 .5.5.7 1 .4.6-.3 1-.8 1-1.1 0-.2-.4-.4-1-.4-.5 0-1 .5-1 1.1m-1030 5.9c0 .5.5 1 1.1 1 .5 0 .7-.5.4-1-.3-.6-.8-1-1.1-1-.2 0-.4.4-.4 1m465.5 0c-.3.5-.1 1 .4 1 .6 0 1.1-.5 1.1-1 0-.6-.2-1-.4-1-.3 0-.8.4-1.1 1m-1022.3 7c.7 1 1.4 1.8 1.5 1.6.6-.6-.9-3.6-1.8-3.6-.5 0-.4.9.3 2m1579.4-.4c-.9 2.4-.2 2.6 1.2.4.7-1.1.8-2 .3-2s-1.2.7-1.5 1.6m-1018.6.4c0 .5.5 1 1.1 1 .5 0 .7-.5.4-1-.3-.6-.8-1-1.1-1-.2 0-.4.4-.4 1m457.5 0c-.3.5-.1 1 .4 1 .6 0 1.1-.5 1.1-1 0-.6-.2-1-.4-1-.3 0-.8.4-1.1 1m-454.5 4.6c0 1.3 1.8 3.9 2.4 3.4.2-.3-.2-1.4-1-2.4-.8-1.1-1.4-1.6-1.4-1m451.2 1.4c-.7 1.1-.8 2-.3 2 .9 0 2.4-3 1.8-3.6-.1-.2-.8.6-1.5 1.6m-1011.7 0c.3.5.8 1 1.1 1 .2 0 .4-.5.4-1 0-.6-.5-1-1.1-1-.5 0-.7.4-.4 1m1572.5.1c0 .5.5.7 1 .4.6-.3 1-.8 1-1.1 0-.2-.4-.4-1-.4-.5 0-1 .5-1 1.1M716.5 1420c.3.5.8 1 1.1 1 .2 0 .4-.5.4-1 0-.6-.5-1-1.1-1-.5 0-.7.4-.4 1m1564.5.1c0 .5.5.7 1 .4.6-.3 1-.8 1-1.1 0-.2-.4-.4-1-.4-.5 0-1 .5-1 1.1m-1000 5.9c0 .5.5 1 1.1 1 .5 0 .7-.5.4-1-.3-.6-.8-1-1.1-1-.2 0-.4.4-.4 1m435.5 0c-.3.5-.1 1 .4 1 .6 0 1.1-.5 1.1-1 0-.6-.2-1-.4-1-.3 0-.8.4-1.1 1m-432.5 4.6c0 1.3 1.8 3.9 2.4 3.4.2-.3-.2-1.4-1-2.4-.8-1.1-1.4-1.6-1.4-1m429.2 1.4c-.7 1.1-.8 2-.3 2 .9 0 2.4-3 1.8-3.6-.1-.2-.8.6-1.5 1.6m-989 1c.7 1 1.4 1.8 1.5 1.6.6-.6-.9-3.6-1.8-3.6-.5 0-.4.9.3 2m1549.4-.4c-.9 2.4-.2 2.6 1.2.4.7-1.1.8-2 .3-2s-1.2.7-1.5 1.6m-985.6 5c0 1.3 1.8 3.9 2.4 3.4.2-.3-.2-1.4-1-2.4-.8-1.1-1.4-1.6-1.4-1m421.2 1.4c-.7 1.1-.8 2-.3 2 .9 0 2.4-3 1.8-3.6-.1-.2-.8.6-1.5 1.6m-981.7 0c.3.5.8 1 1.1 1 .2 0 .4-.5.4-1 0-.6-.5-1-1.1-1-.5 0-.7.4-.4 1m1542.5.1c0 .5.5.7 1 .4.6-.3 1-.8 1-1.1 0-.2-.4-.4-1-.4-.5 0-1 .5-1 1.1M731.5 1446c.3.5.8 1 1.1 1 .2 0 .4-.5.4-1 0-.6-.5-1-1.1-1-.5 0-.7.4-.4 1m1534.5.1c0 .5.5.7 1 .4.6-.3 1-.8 1-1.1 0-.2-.4-.4-1-.4-.5 0-1 .5-1 1.1m-970 5.9c0 .5.5 1 1.1 1 .5 0 .7-.5.4-1-.3-.6-.8-1-1.1-1-.2 0-.4.4-.4 1m405.5 0c-.3.5-.1 1 .4 1 .6 0 1.1-.5 1.1-1 0-.6-.2-1-.4-1-.3 0-.8.4-1.1 1m-402.5 4.6c0 1.3 1.8 3.9 2.4 3.4.2-.3-.2-1.4-1-2.4-.8-1.1-1.4-1.6-1.4-1m399.2 1.4c-.7 1.1-.8 2-.3 2 .9 0 2.4-3 1.8-3.6-.1-.2-.8.6-1.5 1.6m-959 1c.7 1 1.4 1.8 1.5 1.6.6-.6-.9-3.6-1.8-3.6-.5 0-.4.9.3 2m1519.4-.4c-.9 2.4-.2 2.6 1.2.4.7-1.1.8-2 .3-2s-1.2.7-1.5 1.6m-955.6 5c0 1.3 1.8 3.9 2.4 3.4.2-.3-.2-1.4-1-2.4-.8-1.1-1.4-1.6-1.4-1m391.2 1.4c-.7 1.1-.8 2-.3 2 .9 0 2.4-3 1.8-3.6-.1-.2-.8.6-1.5 1.6m-951.7 0c.3.5.8 1 1.1 1 .2 0 .4-.5.4-1 0-.6-.5-1-1.1-1-.5 0-.7.4-.4 1m1512.5.1c0 .5.5.7 1 .4.6-.3 1-.8 1-1.1 0-.2-.4-.4-1-.4-.5 0-1 .5-1 1.1m-944 12.9c0 .5.5 1 1.1 1 .5 0 .7-.5.4-1-.3-.6-.8-1-1.1-1-.2 0-.4.4-.4 1m375.5 0c-.3.5-.1 1 .4 1 .6 0 1.1-.5 1.1-1 0-.6-.2-1-.4-1-.3 0-.8.4-1.1 1m-372.5 4.6c0 1.3 1.8 3.9 2.4 3.4.2-.3-.2-1.4-1-2.4-.8-1.1-1.4-1.6-1.4-1m369.2 1.4c-.7 1.1-.8 2-.3 2 .9 0 2.4-3 1.8-3.6-.1-.2-.8.6-1.5 1.6m-929 1c.7 1 1.4 1.8 1.5 1.6.6-.6-.9-3.6-1.8-3.6-.5 0-.4.9.3 2m1489.4-.4c-.9 2.4-.2 2.6 1.2.4.7-1.1.8-2 .3-2s-1.2.7-1.5 1.6M757.5 1491c.3.5.8 1 1.1 1 .2 0 .4-.5.4-1 0-.6-.5-1-1.1-1-.5 0-.7.4-.4 1m1482.5.1c0 .5.5.7 1 .4.6-.3 1-.8 1-1.1 0-.2-.4-.4-1-.4-.5 0-1 .5-1 1.1m-918 5.9c0 .5.5 1 1.1 1 .5 0 .7-.5.4-1-.3-.6-.8-1-1.1-1-.2 0-.4.4-.4 1m353.5 0c-.3.5-.1 1 .4 1 .6 0 1.1-.5 1.1-1 0-.6-.2-1-.4-1-.3 0-.8.4-1.1 1m-350.5 4.6c0 1.3 1.8 3.9 2.4 3.4.2-.3-.2-1.4-1-2.4-.8-1.1-1.4-1.6-1.4-1m347.2 1.4c-.7 1.1-.8 2-.3 2 .9 0 2.4-3 1.8-3.6-.1-.2-.8.6-1.5 1.6m-343.2 5.6c0 1.3 1.8 3.9 2.4 3.4.2-.3-.2-1.4-1-2.4-.8-1.1-1.4-1.6-1.4-1m339.2 1.4c-.7 1.1-.8 2-.3 2 .9 0 2.4-3 1.8-3.6-.1-.2-.8.6-1.5 1.6m-899.7 0c.3.5.8 1 1.1 1 .2 0 .4-.5.4-1 0-.6-.5-1-1.1-1-.5 0-.7.4-.4 1m1460.5.1c0 .5.5.7 1 .4.6-.3 1-.8 1-1.1 0-.2-.4-.4-1-.4-.5 0-1 .5-1 1.1M772.5 1517c.3.5.8 1 1.1 1 .2 0 .4-.5.4-1 0-.6-.5-1-1.1-1-.5 0-.7.4-.4 1m1452.5.1c0 .5.5.7 1 .4.6-.3 1-.8 1-1.1 0-.2-.4-.4-1-.4-.5 0-1 .5-1 1.1m-888 5.9c0 .5.5 1 1.1 1 .5 0 .7-.5.4-1-.3-.6-.8-1-1.1-1-.2 0-.4.4-.4 1m323.5 0c-.3.5-.1 1 .4 1 .6 0 1.1-.5 1.1-1 0-.6-.2-1-.4-1-.3 0-.8.4-1.1 1m-320.5 4.6c0 1.3 1.8 3.9 2.4 3.4.2-.3-.2-1.4-1-2.4-.8-1.1-1.4-1.6-1.4-1m317.2 1.4c-.7 1.1-.8 2-.3 2 .9 0 2.4-3 1.8-3.6-.1-.2-.8.6-1.5 1.6m-877 1c.7 1 1.4 1.8 1.5 1.6.6-.6-.9-3.6-1.8-3.6-.5 0-.4.9.3 2m1437.4-.4c-.9 2.4-.2 2.6 1.2.4.7-1.1.8-2 .3-2s-1.2.7-1.5 1.6m-873.6 5c0 1.3 1.8 3.9 2.4 3.4.2-.3-.2-1.4-1-2.4-.8-1.1-1.4-1.6-1.4-1m309.2 1.4c-.7 1.1-.8 2-.3 2 .9 0 2.4-3 1.8-3.6-.1-.2-.8.6-1.5 1.6m-869.7 0c.3.5.8 1 1.1 1 .2 0 .4-.5.4-1 0-.6-.5-1-1.1-1-.5 0-.7.4-.4 1m1430.5.1c0 .5.5.7 1 .4.6-.3 1-.8 1-1.1 0-.2-.4-.4-1-.4-.5 0-1 .5-1 1.1M787.5 1543c.3.5.8 1 1.1 1 .2 0 .4-.5.4-1 0-.6-.5-1-1.1-1-.5 0-.7.4-.4 1m1422.5.1c0 .5.5.7 1 .4.6-.3 1-.8 1-1.1 0-.2-.4-.4-1-.4-.5 0-1 .5-1 1.1m-858 5.9c0 .5.5 1 1.1 1 .5 0 .7-.5.4-1-.3-.6-.8-1-1.1-1-.2 0-.4.4-.4 1m293.5 0c-.3.5-.1 1 .4 1 .6 0 1.1-.5 1.1-1 0-.6-.2-1-.4-1-.3 0-.8.4-1.1 1m-290.5 4.6c0 1.3 1.8 3.9 2.4 3.4.2-.3-.2-1.4-1-2.4-.8-1.1-1.4-1.6-1.4-1m287.2 1.4c-.7 1.1-.8 2-.3 2 .9 0 2.4-3 1.8-3.6-.1-.2-.8.6-1.5 1.6m-847 1c.7 1 1.4 1.8 1.5 1.6.6-.6-.9-3.6-1.8-3.6-.5 0-.4.9.3 2m1407.4-.4c-.9 2.4-.2 2.6 1.2.4.7-1.1.8-2 .3-2s-1.2.7-1.5 1.6M1359 1561c0 .6.7 1 1.5 1s1.5-.2 1.5-.4-.7-.6-1.5-1c-.8-.3-1.5-.1-1.5.4m279.2 1c-.7 1.1-.8 2-.3 2 .9 0 2.4-3 1.8-3.6-.1-.2-.8.6-1.5 1.6m-839.7 0c.3.5.8 1 1.1 1 .2 0 .4-.5.4-1 0-.6-.5-1-1.1-1-.5 0-.7.4-.4 1m1400.5.1c0 .5.5.7 1 .4.6-.3 1-.8 1-1.1 0-.2-.4-.4-1-.4-.5 0-1 .5-1 1.1M806.2 1575c.7 1 1.4 1.8 1.5 1.6.6-.6-.9-3.6-1.8-3.6-.5 0-.4.9.3 2m1385.4-.4c-.9 2.4-.2 2.6 1.2.4.7-1.1.8-2 .3-2s-1.2.7-1.5 1.6m-561.1.4c-.3.5-.1 1 .4 1 .6 0 1.1-.5 1.1-1 0-.6-.2-1-.4-1-.3 0-.8.4-1.1 1m-3.3 6c-.7 1.1-.8 2-.3 2 .9 0 2.4-3 1.8-3.6-.1-.2-.8.6-1.5 1.6m-817.7 0c.3.5.8 1 1.1 1 .2 0 .4-.5.4-1 0-.6-.5-1-1.1-1-.5 0-.7.4-.4 1m1378.5.1c0 .5.5.7 1 .4.6-.3 1-.8 1-1.1 0-.2-.4-.4-1-.4-.5 0-1 .5-1 1.1M813.5 1588c.3.5.8 1 1.1 1 .2 0 .4-.5.4-1 0-.6-.5-1-1.1-1-.5 0-.7.4-.4 1m1370.5.1c0 .5.5.7 1 .4.6-.3 1-.8 1-1.1 0-.2-.4-.4-1-.4-.5 0-1 .5-1 1.1m-564.5 5.9c-.3.5-.1 1 .4 1 .6 0 1.1-.5 1.1-1 0-.6-.2-1-.4-1-.3 0-.8.4-1.1 1m-3.3 6c-.7 1.1-.8 2-.3 2 .9 0 2.4-3 1.8-3.6-.1-.2-.8.6-1.5 1.6m-795 1c.7 1 1.4 1.8 1.5 1.6.6-.6-.9-3.6-1.8-3.6-.5 0-.4.9.3 2m1355.4-.4c-.9 2.4-.2 2.6 1.2.4.7-1.1.8-2 .3-2s-1.2.7-1.5 1.6m-564.4 6.4c-.7 1.1-.8 2-.3 2 .9 0 2.4-3 1.8-3.6-.1-.2-.8.6-1.5 1.6m-787.7 0c.3.5.8 1 1.1 1 .2 0 .4-.5.4-1 0-.6-.5-1-1.1-1-.5 0-.7.4-.4 1m1348.5.1c0 .5.5.7 1 .4.6-.3 1-.8 1-1.1 0-.2-.4-.4-1-.4-.5 0-1 .5-1 1.1M828.5 1614c.3.5.8 1 1.1 1 .2 0 .4-.5.4-1 0-.6-.5-1-1.1-1-.5 0-.7.4-.4 1m1340.5.1c0 .5.5.7 1 .4.6-.3 1-.8 1-1.1 0-.2-.4-.4-1-.4-.5 0-1 .5-1 1.1m-564.5 5.9c-.3.5-.1 1 .4 1 .6 0 1.1-.5 1.1-1 0-.6-.2-1-.4-1-.3 0-.8.4-1.1 1m-3.3 6c-.7 1.1-.8 2-.3 2 .9 0 2.4-3 1.8-3.6-.1-.2-.8.6-1.5 1.6m-765 1c.7 1 1.4 1.8 1.5 1.6.6-.6-.9-3.6-1.8-3.6-.5 0-.4.9.3 2m1325.4-.4c-.9 2.4-.2 2.6 1.2.4.7-1.1.8-2 .3-2s-1.2.7-1.5 1.6m-564.4 6.4c-.7 1.1-.8 2-.3 2 .9 0 2.4-3 1.8-3.6-.1-.2-.8.6-1.5 1.6m-757.7 0c.3.5.8 1 1.1 1 .2 0 .4-.5.4-1 0-.6-.5-1-1.1-1-.5 0-.7.4-.4 1m1318.5.1c0 .5.5.7 1 .4.6-.3 1-.8 1-1.1 0-.2-.4-.4-1-.4-.5 0-1 .5-1 1.1m-563.9 5.2c-1.3 2.1-1.2 2.1.5.5 1-1 1.6-2 1.3-2.2-.3-.3-1.1.5-1.8 1.7M851.2 1653c.7 1 1.4 1.8 1.5 1.6.6-.6-.9-3.6-1.8-3.6-.5 0-.4.9.3 2m1295.4-.4c-.9 2.4-.2 2.6 1.2.4.7-1.1.8-2 .3-2s-1.2.7-1.5 1.6M854.5 1659c.3.5.8 1 1.1 1 .2 0 .4-.5.4-1 0-.6-.5-1-1.1-1-.5 0-.7.4-.4 1m1288.5.1c0 .5.5.7 1 .4.6-.3 1-.8 1-1.1 0-.2-.4-.4-1-.4-.5 0-1 .5-1 1.1M865.5 1678c.3.5.8 1 1.1 1 .2 0 .4-.5.4-1 0-.6-.5-1-1.1-1-.5 0-.7.4-.4 1m1266.5.1c0 .5.5.7 1 .4.6-.3 1-.8 1-1.1 0-.2-.4-.4-1-.4-.5 0-1 .5-1 1.1m-281.7 1.6c51.5.2 135.9.2 187.5 0 51.5-.1 9.3-.2-93.8-.2s-145.3.1-93.7.2m-980.8 5.3c.3.5.8 1 1.1 1 .2 0 .4-.5.4-1 0-.6-.5-1-1.1-1-.5 0-.7.4-.4 1m7.7 13c.7 1 1.4 1.8 1.5 1.6.6-.6-.9-3.6-1.8-3.6-.5 0-.4.9.3 2m3.3 6c.3.5.8 1 1.1 1 .2 0 .4-.5.4-1 0-.6-.5-1-1.1-1-.5 0-.7.4-.4 1m473.7 350.2c-3.8 6.1-135.2 234-135.2 234.4 0 .2 125.9.3 279.8.2l279.7-.3-279-.5-279-.5 67.3-116.5c37-64.1 67.7-117.3 68.3-118.3 1.7-3.1.1-1.8-1.9 1.5m318.6 51.8c2.7 4.7 27.1 47 54.2 94s49.7 85.9 50.3 86.5c.5.5.4-.1-.3-1.5-4-7.7-106.5-184.7-107.7-186-.8-.8.7 2.3 3.5 7"/><g fill="#BF0000" fill-opacity=".9" stroke-opacity=".9" stroke-width="0"><path d="M1406.7 1483c-.3 1.1-.3 2-.1 2s.8-.9 1.4-2 .7-2 .2-2c-.6 0-1.2.9-1.5 2m-3.2 6c-.9 1.6-1.3 3-1.1 3 .3 0 1.2-1.4 2.1-3 .9-1.7 1.3-3 1.1-3-.3 0-1.2 1.3-2.1 3m-4 7c-.9 1.6-1.3 3-1.1 3 .3 0 1.2-1.4 2.1-3 .9-1.7 1.3-3 1.1-3-.3 0-1.2 1.3-2.1 3m-4 7c-.9 1.6-1.3 3-1.1 3 .3 0 1.2-1.4 2.1-3 .9-1.7 1.3-3 1.1-3-.3 0-1.2 1.3-2.1 3m-2.8 4.7c-.2.5-1.7 3-3.2 5.8-1.6 2.7-2.4 4.5-1.8 4 1.4-1.4 6.6-10.5 6-10.5-.3 0-.8.3-1 .7m-8.2 14.3c-.9 1.6-1.3 3-1.1 3 .3 0 1.2-1.4 2.1-3 .9-1.7 1.3-3 1.1-3-.3 0-1.2 1.3-2.1 3m-4 7c-.9 1.6-1.3 3-1.1 3 .3 0 1.2-1.4 2.1-3 .9-1.7 1.3-3 1.1-3-.3 0-1.2 1.3-2.1 3m-3.5 6c-.6 1.1-.8 2-.6 2 .3 0 1-.9 1.6-2s.8-2 .6-2c-.3 0-1 .9-1.6 2m-3.5 6c-.9 1.6-1.3 3-1.1 3 .3 0 1.2-1.4 2.1-3 .9-1.7 1.3-3 1.1-3-.3 0-1.2 1.3-2.1 3m-4 7c-.9 1.6-1.3 3-1.1 3 .3 0 1.2-1.4 2.1-3 .9-1.7 1.3-3 1.1-3-.3 0-1.2 1.3-2.1 3m-5.5 9.5c-1.8 3.2-3.6 5.2-4.2 4.9-.7-.5-.8-.2-.3.5.6 1 1 1 2-.1 1.7-1.8 6.8-10.8 6.2-10.8-.3 0-2 2.5-3.7 5.5m179.2 8c-1.7 3.6-3 6.5-2.7 6.5.7 0 6.7-12.1 6.3-12.6-.2-.2-1.8 2.6-3.6 6.1m-6.2 11.5c-.6 1.1-.8 2-.6 2 .3 0 1-.9 1.6-2s.8-2 .6-2c-.3 0-1 .9-1.6 2m-7 12c-.6 1.1-.8 2-.6 2 .3 0 1-.9 1.6-2s.8-2 .6-2c-.3 0-1 .9-1.6 2m-81.3 42.4c-12.5 21.7-23 40.2-23.3 41.2-.8 2.5.6.1 25.5-42.9 11.7-20.3 21.1-37 20.9-37.2s-10.6 17.3-23.1 38.9m77.3-35.4c-.6 1.1-.8 2-.6 2 .3 0 1-.9 1.6-2s.8-2 .6-2c-.3 0-1 .9-1.6 2m-4 7c-.6 1.1-.8 2-.6 2 .3 0 1-.9 1.6-2s.8-2 .6-2c-.3 0-1 .9-1.6 2m-7 12c-.6 1.1-.8 2-.6 2 .3 0 1-.9 1.6-2s.8-2 .6-2c-.3 0-1 .9-1.6 2m-4 7c-.6 1.1-.8 2-.6 2 .3 0 1-.9 1.6-2s.8-2 .6-2c-.3 0-1 .9-1.6 2m-4 7c-.6 1.1-.8 2-.6 2 .3 0 1-.9 1.6-2s.8-2 .6-2c-.3 0-1 .9-1.6 2m-3 5c-.6 1.1-.8 2-.6 2 .3 0 1-.9 1.6-2s.8-2 .6-2c-.3 0-1 .9-1.6 2m87.2 9.7c-2.8 4.2-17.6 30.1-20.1 35.3-3.2 6.7-1.2 3.5 11.3-18.3 10.8-18.6 13.2-23.3 8.8-17m-94.2 2.3c-.6 1.1-.8 2-.6 2 .3 0 1-.9 1.6-2s.8-2 .6-2c-.3 0-1 .9-1.6 2m-4 7c-.6 1.1-.8 2-.6 2 .3 0 1-.9 1.6-2s.8-2 .6-2c-.3 0-1 .9-1.6 2m-11 19c-.6 1.1-.8 2-.6 2 .3 0 1-.9 1.6-2s.8-2 .6-2c-.3 0-1 .9-1.6 2m-4 7c-.6 1.1-.8 2-.6 2 .3 0 1-.9 1.6-2s.8-2 .6-2c-.3 0-1 .9-1.6 2m276 2c-.6 1.1-.8 2-.6 2 .3 0 1-.9 1.6-2s.8-2 .6-2c-.3 0-1 .9-1.6 2m-128 1c-.6 1.1-.8 2-.6 2 .3 0 1-.9 1.6-2s.8-2 .6-2c-.3 0-1 .9-1.6 2"/><path d="M1567.7 1684.7c-.2.5-1.7 3-3.2 5.8-1.6 2.7-2.4 4.5-1.8 4 1.4-1.4 6.6-10.5 6-10.5-.3 0-.8.3-1 .7m183.3 1.3c-.6 1.1-.8 2-.6 2 .3 0 1-.9 1.6-2s.8-2 .6-2c-.3 0-1 .9-1.6 2m-127.3-.3c-.2.5-1.7 3-3.2 5.8-1.6 2.7-2.4 4.5-1.8 4 1.4-1.4 6.6-10.5 6-10.5-.3 0-.8.3-1 .7m123.3 7.3c-.6 1.1-.8 2-.6 2 .3 0 1-.9 1.6-2s.8-2 .6-2c-.3 0-1 .9-1.6 2m-280 5c-.6 1.1-.8 2-.6 2 .3 0 1-.9 1.6-2s.8-2 .6-2c-.3 0-1 .9-1.6 2m92.5 1c-.9 1.6-1.3 3-1.1 3 .3 0 1.2-1.4 2.1-3 .9-1.7 1.3-3 1.1-3-.3 0-1.2 1.3-2.1 3m56 1c-.9 1.6-1.3 3-1.1 3 .3 0 1.2-1.4 2.1-3 .9-1.7 1.3-3 1.1-3-.3 0-1.2 1.3-2.1 3m127.5 0c-.6 1.1-.8 2-.6 2 .3 0 1-.9 1.6-2s.8-2 .6-2c-.3 0-1 .9-1.6 2m-280 5c-.6 1.1-.8 2-.6 2 .3 0 1-.9 1.6-2s.8-2 .6-2c-.3 0-1 .9-1.6 2m92.5 1c-.9 1.6-1.3 3-1.1 3 .3 0 1.2-1.4 2.1-3 .9-1.7 1.3-3 1.1-3-.3 0-1.2 1.3-2.1 3m56.5 0c-.6 1.1-.8 2-.6 2 .3 0 1-.9 1.6-2s.8-2 .6-2c-.3 0-1 .9-1.6 2m-60 6c-.6 1.1-.8 2-.6 2 .3 0 1-.9 1.6-2s.8-2 .6-2c-.3 0-1 .9-1.6 2m56.7-.3c-.2.5-1.7 3-3.2 5.8-1.6 2.7-2.4 4.5-1.8 4 1.4-1.4 6.6-10.5 6-10.5-.3 0-.8.3-1 .7m-60.2 6.3c-.9 1.6-1.3 3-1.1 3 .3 0 1.2-1.4 2.1-3 .9-1.7 1.3-3 1.1-3-.3 0-1.2 1.3-2.1 3m183.5 1c-.6 1.1-.8 2-.6 2 .3 0 1-.9 1.6-2s.8-2 .6-2c-.3 0-1 .9-1.6 2m-187.5 6c-.9 1.6-1.3 3-1.1 3 .3 0 1.2-1.4 2.1-3 .9-1.7 1.3-3 1.1-3-.3 0-1.2 1.3-2.1 3m56 1c-.9 1.6-1.3 3-1.1 3 .3 0 1.2-1.4 2.1-3 .9-1.7 1.3-3 1.1-3-.3 0-1.2 1.3-2.1 3m-150 1c-.9 1.6-1.3 3-1.1 3 .3 0 1.2-1.4 2.1-3 .9-1.7 1.3-3 1.1-3-.3 0-1.2 1.3-2.1 3m277.5-1c-.6 1.1-.8 2-.6 2 .3 0 1-.9 1.6-2s.8-2 .6-2c-.3 0-1 .9-1.6 2m-186.3 3.7c-.2.5-1.7 3-3.2 5.8-1.6 2.7-2.4 4.5-1.8 4 1.4-1.4 6.6-10.5 6-10.5-.3 0-.8.3-1 .7m54.8 3.3c-.9 1.6-1.3 3-1.1 3 .3 0 1.2-1.4 2.1-3 .9-1.7 1.3-3 1.1-3-.3 0-1.2 1.3-2.1 3m-150 1c-.9 1.6-1.3 3-1.1 3 .3 0 1.2-1.4 2.1-3 .9-1.7 1.3-3 1.1-3-.3 0-1.2 1.3-2.1 3m146.5 5c-.6 1.1-.8 2-.6 2 .3 0 1-.9 1.6-2s.8-2 .6-2c-.3 0-1 .9-1.6 2m-59.5 5c-.9 1.6-1.3 3-1.1 3 .3 0 1.2-1.4 2.1-3 .9-1.7 1.3-3 1.1-3-.3 0-1.2 1.3-2.1 3m56 1c-.9 1.6-1.3 3-1.1 3 .3 0 1.2-1.4 2.1-3 .9-1.7 1.3-3 1.1-3-.3 0-1.2 1.3-2.1 3m127.5 0c-.6 1.1-.8 2-.6 2 .3 0 1-.9 1.6-2s.8-2 .6-2c-.3 0-1 .9-1.6 2m-187.5 6c-.9 1.6-1.3 3-1.1 3 .3 0 1.2-1.4 2.1-3 .9-1.7 1.3-3 1.1-3-.3 0-1.2 1.3-2.1 3m56 1c-.9 1.6-1.3 3-1.1 3 .3 0 1.2-1.4 2.1-3 .9-1.7 1.3-3 1.1-3-.3 0-1.2 1.3-2.1 3m127.5 0c-.6 1.1-.8 2-.6 2 .3 0 1-.9 1.6-2s.8-2 .6-2c-.3 0-1 .9-1.6 2m-186.7 4.2c-2 2.6-2.6 4.1-1.5 3.4 1.2-.7 3.6-4.6 2.9-4.6-.3 0-.9.6-1.4 1.2m-5.3 8.8c-.6 1.1-.8 2-.6 2 .3 0 1-.9 1.6-2s.8-2 .6-2c-.3 0-1 .9-1.6 2m-3.5 6c-.9 1.6-1.3 3-1.1 3 .3 0 1.2-1.4 2.1-3 .9-1.7 1.3-3 1.1-3-.3 0-1.2 1.3-2.1 3m-3.5 6c-.6 1.1-.8 2-.6 2 .3 0 1-.9 1.6-2s.8-2 .6-2c-.3 0-1 .9-1.6 2m-4 7c-.6 1.1-.8 2-.6 2 .3 0 1-.9 1.6-2s.8-2 .6-2c-.3 0-1 .9-1.6 2m-4 7c-.6 1.1-.8 2-.6 2 .3 0 1-.9 1.6-2s.8-2 .6-2c-.3 0-1 .9-1.6 2m-3.5 6c-.9 1.6-1.3 3-1.1 3 .3 0 1.2-1.4 2.1-3 .9-1.7 1.3-3 1.1-3-.3 0-1.2 1.3-2.1 3m-7.8 13.2c-7.5 12.9-13.2 23.5-11.9 22.3.5-.6 4.2-6.7 8.1-13.8 3.9-7 7.8-13.9 8.7-15.2.9-1.4 1.4-2.5 1-2.5-.3 0-3 4.2-5.9 9.2m-425.7-5.1c0 .5.5.7 1 .4.6-.3 1-.8 1-1.1 0-.2-.4-.4-1-.4-.5 0-1 .5-1 1.1m825-.2c0 .6.4 1.3 1 1.6s.7-.1.4-.9c-.7-1.8-1.4-2.1-1.4-.7m-414.1 31.3c-.6 1.3-2.3 4.3-3.7 6.8s-2.1 4-1.5 3.5c1.5-1.4 7.6-12.5 6.9-12.5-.3 0-1.1 1-1.7 2.2m-13.4 23.5c-3.7 6.5-7 12.1-7.2 12.5-.2.5-.2.8.1.8.2 0 3.5-5.3 7.1-11.8 3.7-6.4 7-12 7.2-12.5.2-.4.2-.7-.1-.7-.2 0-3.5 5.3-7.1 11.7m-22.5 39c-16.3 28.3-15.6 27.1-14.3 25.8.8-.8 16.2-27.3 29-49.8.2-.4.2-.7 0-.7-.3 0-6.9 11.1-14.7 24.7m-28 48.5c-6.8 11.7-12.5 21.6-12.7 22-.2.5-.2.8 0 .8.4 0 15.6-26 25.4-43.3.2-.4.2-.7 0-.7-.3 0-6 9.6-12.7 21.2m-36.2 62.5c-12.2 21.3-22.4 39.4-22.6 40.3-.2.8.3.4 1.1-1 .7-1.4 10.9-19.2 22.7-39.5 11.7-20.4 21.5-37.3 21.7-37.8.2-.4.2-.7-.1-.7-.2 0-10.5 17.4-22.8 38.7m260.2 39.8c0 1.2 27.3 48.5 27.8 48 .3-.3-26.1-47-27.4-48.4-.2-.2-.4-.1-.4.4"/></g><path fill="#BF0000" fill-opacity=".6" d="M894.5 1724c.2.3 49.4.5 109.5.5s109.4.3 109.7.8c.2.4-1 3.2-2.7 6.2s-2.9 5.5-2.7 5.5c.9 0 6-9.4 6.2-11.5l.3-2h-110.3c-60.7 0-110.2.2-110 .5m211 17c-.9 1.6-1.3 3-1.1 3 .3 0 1.2-1.4 2.1-3 .9-1.7 1.3-3 1.1-3-.3 0-1.2 1.3-2.1 3m-4 7c-.9 1.6-1.3 3-1.1 3 .3 0 1.2-1.4 2.1-3 .9-1.7 1.3-3 1.1-3-.3 0-1.2 1.3-2.1 3m337.5 0c-.6 1.1-.8 2-.6 2 .3 0 1-.9 1.6-2s.8-2 .6-2c-.3 0-1 .9-1.6 2m-3.5 6c-.9 1.6-1.3 3-1.1 3 .3 0 1.2-1.4 2.1-3 .9-1.7 1.3-3 1.1-3-.3 0-1.2 1.3-2.1 3m-336.8-1.3c-.2.5-1.7 3-3.2 5.8-1.6 2.7-2.4 4.5-1.8 4 1.4-1.4 6.6-10.5 6-10.5-.3 0-.8.3-1 .7m764.6 5c.9.2 2.3.2 3 0 .6-.3-.1-.5-1.8-.5-1.6 0-2.2.2-1.2.5m-434.8 8.5c-2.6 4.6-5 8.6-5.2 9-.2.5-.2.8.1.8s3.7-5.7 10.3-17.3c.2-.4.2-.7-.1-.7-.2 0-2.5 3.7-5.1 8.2m439.5-8c0 .9 8.1 14.8 8.7 14.8.2 0-1-2.6-2.8-5.8-3.8-6.6-5.9-9.9-5.9-9m-777.5 8.8c-.9 1.6-1.3 3-1.1 3 .3 0 1.2-1.4 2.1-3 .9-1.7 1.3-3 1.1-3-.3 0-1.2 1.3-2.1 3m-7 12.2c-2.6 4.6-5 8.6-5.2 9-.2.5-.2.8.1.8s3.7-5.7 10.3-17.3c.2-.4.2-.7-.1-.7-.2 0-2.5 3.7-5.1 8.2m795-2.2c.9 1.6 1.8 3 2.1 3 .2 0-.2-1.4-1.1-3-.9-1.7-1.8-3-2.1-3-.2 0 .2 1.3 1.1 3m-458 3c-.9 1.6-1.3 3-1.1 3 .3 0 1.2-1.4 2.1-3 .9-1.7 1.3-3 1.1-3-.3 0-1.2 1.3-2.1 3m462 4c.9 1.6 1.8 3 2.1 3 .2 0-.2-1.4-1.1-3-.9-1.7-1.8-3-2.1-3-.2 0 .2 1.3 1.1 3m-470.4 10.5c-3.3 5.8-5.6 10.3-5.2 10 .5-.3 2.4-3.1 4.1-6.3 1.8-3.1 4.4-7.6 5.7-10 1.4-2.3 2.3-4.2 2-4.2s-3.3 4.7-6.6 10.5m475.4-2c1.5 2.7 3.2 5.4 3.8 6 .6.5-.2-1.3-1.8-4-1.5-2.8-3.2-5.5-3.8-6-.6-.6.2 1.2 1.8 4m-812.8 1.7c-3.5 6.1-5.1 9.5-4 8.3 1.4-1.4 7.6-12.5 7-12.5-.3 0-1.6 1.9-3 4.2m818.3 7.8c.6 1.1 1.3 2 1.6 2 .2 0 0-.9-.6-2s-1.3-2-1.6-2c-.2 0 0 .9.6 2m-945.7 213.2c-1.7 2.3-7.5 12.8-7 12.8.3 0 2.3-3.2 4.6-7 3.7-6.5 4.6-8.7 2.4-5.8m335.2 3.8c-.9 1.6-1.3 3-1.1 3 .3 0 1.2-1.4 2.1-3 .9-1.7 1.3-3 1.1-3-.3 0-1.2 1.3-2.1 3m-7 12.2c-2.6 4.6-5 8.6-5.2 9-.2.5-.2.8.1.8s3.7-5.7 10.3-17.3c.2-.4.2-.7-.1-.7-.2 0-2.5 3.7-5.1 8.2m-338 .8c-.9 1.6-1.3 3-1.1 3 .3 0 1.2-1.4 2.1-3 .9-1.7 1.3-3 1.1-3-.3 0-1.2 1.3-2.1 3m-9 15.7c-3.7 6.5-7 12.1-7.2 12.5-.2.5-.2.8.1.8.2 0 3.5-5.3 7.1-11.8 3.7-6.4 7-12 7.2-12.5.2-.4.2-.7-.1-.7-.2 0-3.5 5.3-7.1 11.7m339-2.7c-.9 1.6-1.3 3-1.1 3 .3 0 1.2-1.4 2.1-3 .9-1.7 1.3-3 1.1-3-.3 0-1.2 1.3-2.1 3m-4 7c-.9 1.6-1.3 3-1.1 3 .3 0 1.2-1.4 2.1-3 .9-1.7 1.3-3 1.1-3-.3 0-1.2 1.3-2.1 3m775 2.5c1.5 2.7 3.2 5.4 3.8 6 .6.5-.2-1.3-1.8-4-1.5-2.8-3.2-5.5-3.8-6-.6-.6.2 1.2 1.8 4m-777.8 2.2c-.2.5-1.7 3-3.2 5.8-1.6 2.7-2.4 4.5-1.8 4 1.4-1.4 6.6-10.5 6-10.5-.3 0-.8.3-1 .7m-342.2 8.3c-.9 1.6-1.3 3-1.1 3 .3 0 1.2-1.4 2.1-3 .9-1.7 1.3-3 1.1-3-.3 0-1.2 1.3-2.1 3m1126 0c.9 1.6 1.8 3 2.1 3 .2 0-.2-1.4-1.1-3-.9-1.7-1.8-3-2.1-3-.2 0 .2 1.3 1.1 3m-792 6c-.9 1.6-1.3 3-1.1 3 .3 0 1.2-1.4 2.1-3 .9-1.7 1.3-3 1.1-3-.3 0-1.2 1.3-2.1 3m-338 1c-.9 1.6-1.3 3-1.1 3 .3 0 1.2-1.4 2.1-3 .9-1.7 1.3-3 1.1-3-.3 0-1.2 1.3-2.1 3m1134 0c.9 1.6 1.8 3 2.1 3 .2 0-.2-1.4-1.1-3-.9-1.7-1.8-3-2.1-3-.2 0 .2 1.3 1.1 3m-800 6c-.9 1.6-1.3 3-1.1 3 .3 0 1.2-1.4 2.1-3 .9-1.7 1.3-3 1.1-3-.3 0-1.2 1.3-2.1 3m-341.9 7.6c-3.1 5.3-5.6 10-5.6 10.5s72.6.8 168.3.7l168.2-.3-167.7-.2c-92.3-.2-167.8-.5-167.8-.8s1-2.2 2.3-4.3c4.1-6.6 8.9-15.2 8.4-15.2-.3 0-3 4.3-6.1 9.6m1147.4-4.1c1.9 3.3 4.4 7.7 5.7 9.7 1.3 2.1 2.3 4 2.3 4.3 0 .2-12.9.6-28.7.8l-28.8.2 29.3.3c16.9.1 29.2-.2 29.2-.7 0-1.1-9.8-18.2-11.3-19.6-.5-.6.5 1.7 2.3 5m-811.9 7.6c-4 6.8-5.5 10.5-2.8 6.4 2.5-3.8 7.8-13.5 7.4-13.5-.3 0-2.4 3.2-4.6 7.1m440.7 7.6c7.9.2 20.5.2 28 0 7.5-.1 1.1-.3-14.3-.3s-21.6.2-13.7.3"/><path fill="#BF0000" d="M1360.8 912.2c-76.3 132.2-139 241-139.3 242-.4 1 30.9 56.2 93.1 163.9 51.6 89.3 93.7 162.8 93.7 163.4 0 1.2-45 79.4-46.8 81.3-.9 1-20.2-31.6-95-161.3l-93.8-162.5H613.8l1.4 2.2c.8 1.3 63.7 110.2 139.8 242L893.4 1723h111.8c61.5 0 111.8.2 111.8.5s-23.9 41.9-42.5 74c-15.3 26.3-80.6 139.4-123.3 213.5-26.1 45.4-47.9 83.1-48.4 83.8-.8.9 32.7 1.2 166.8 1.2h167.9l24.1-41.8c13.3-22.9 47.7-82.4 76.4-132.2 48.8-84.4 71.7-124.2 120-208 10.6-18.4 33.3-57.8 50.5-87.5s32.9-57.4 35-61.5 55.9-97.9 119.7-208.4c76.9-133.2 115.7-201.4 115.3-202.5-1-2.7-278-482.1-278.5-482.1-.3 0-62.9 108.1-139.2 240.2m90.1 717.5c-24.9 43-26.3 45.4-25.5 42.9.9-2.7 46-80.6 46.4-80.1.2.2-9.2 16.9-20.9 37.2m265.1-199.5c-60.7 105.2-114.3 197.8-119.1 205.8-4.7 8-13.8 23.5-20.1 34.5-12.6 22-46.9 81.1-58 100-8.1 13.7-25.8 44.5-37.5 65-4.4 7.7-33.4 58.1-64.5 112s-58.4 101.4-60.6 105.5-33.5 58.6-69.6 121l-65.5 113.5 138.9.3c76.5.1 201.5.1 278 0l138.9-.3-68.6-118.8c-37.7-65.3-68.4-119-68.2-119.2.3-.2 6.5 10.2 13.9 23.1l13.5 23.4h394.3l-12.5-21.8c-6.9-11.9-17.8-30.9-24.3-42.2-23.5-40.9-121-209.9-154.2-267.2l-3.9-6.8-78.4-.2-78.5-.3 22.5-39 22.4-39 188.2-.5 188.2-.5 125.9-218c69.2-119.9 126.3-218.8 126.9-219.8.9-1.6-12.6-1.7-278.4-1.7h-279.4zm-89 251.8c-.6 1.1-1.3 2-1.6 2-.2 0 0-.9.6-2s1.3-2 1.6-2c.2 0 0 .9-.6 2m-4.5 7.7c-1.5 2.7-3.2 5.2-3.8 5.8-.6.5.2-1.3 1.8-4 1.5-2.8 3-5.3 3.2-5.8.2-.4.7-.7 1-.7.2 0-.7 2.1-2.2 4.7m-6 10.3c-.9 1.6-1.8 3-2.1 3-.2 0 .2-1.4 1.1-3 .9-1.7 1.8-3 2.1-3 .2 0-.2 1.3-1.1 3m-3.5 6c-.6 1.1-1.3 2-1.6 2-.2 0 0-.9.6-2s1.3-2 1.6-2c.2 0 0 .9-.6 2m-5.5 9.7c-1.5 2.7-3.2 5.2-3.8 5.8-.6.5.2-1.3 1.8-4 1.5-2.8 3-5.3 3.2-5.8.2-.4.7-.7 1-.7.2 0-.7 2.1-2.2 4.7m-6 10.3c-.9 1.6-1.8 3-2.1 3-.2 0 .2-1.4 1.1-3 .9-1.7 1.8-3 2.1-3 .2 0-.2 1.3-1.1 3m-4 7c-.9 1.6-1.8 3-2.1 3-.2 0 .2-1.4 1.1-3 .9-1.7 1.8-3 2.1-3 .2 0-.2 1.3-1.1 3m-3.5 6c-.6 1.1-1.3 2-1.6 2-.2 0 0-.9.6-2s1.3-2 1.6-2c.2 0 0 .9-.6 2m-3.5 6c-.9 1.6-1.8 3-2.1 3-.2 0 .2-1.4 1.1-3 .9-1.7 1.8-3 2.1-3 .2 0-.2 1.3-1.1 3m-4 7c-.9 1.6-1.8 3-2.1 3-.2 0 .2-1.4 1.1-3 .9-1.7 1.8-3 2.1-3 .2 0-.2 1.3-1.1 3"/><path fill="#BF0000" fill-opacity=".3" d="M1714.3 1756.7c.9.2 2.3.2 3 0 .6-.3-.1-.5-1.8-.5-1.6 0-2.2.2-1.2.5m5.5 0c.6.2 1.8.2 2.5 0 .6-.3.1-.5-1.3-.5s-1.9.2-1.2.5m5 0c.6.2 1.8.2 2.5 0 .6-.3.1-.5-1.3-.5s-1.9.2-1.2.5m5 0c.7.3 1.6.2 1.9-.1.4-.3-.2-.6-1.3-.5-1.1 0-1.4.3-.6.6m4 0c.7.3 1.6.2 1.9-.1.4-.3-.2-.6-1.3-.5-1.1 0-1.4.3-.6.6m4 0c.6.2 1.8.2 2.5 0 .6-.3.1-.5-1.3-.5s-1.9.2-1.2.5m5 0c.6.2 1.8.2 2.5 0 .6-.3.1-.5-1.3-.5s-1.9.2-1.2.5m5 0c.7.3 1.6.2 1.9-.1.4-.3-.2-.6-1.3-.5-1.1 0-1.4.3-.6.6m4 0c.7.3 1.6.2 1.9-.1.4-.3-.2-.6-1.3-.5-1.1 0-1.4.3-.6.6m4 0c.6.2 1.8.2 2.5 0 .6-.3.1-.5-1.3-.5s-1.9.2-1.2.5m5 0c.7.3 1.6.2 1.9-.1.4-.3-.2-.6-1.3-.5-1.1 0-1.4.3-.6.6m5 0c.7.3 1.6.2 1.9-.1.4-.3-.2-.6-1.3-.5-1.1 0-1.4.3-.6.6m4 0c.7.3 1.6.2 1.9-.1.4-.3-.2-.6-1.3-.5-1.1 0-1.4.3-.6.6m4 0c.7.3 1.6.2 1.9-.1.4-.3-.2-.6-1.3-.5-1.1 0-1.4.3-.6.6m5 0c.7.3 1.6.2 1.9-.1.4-.3-.2-.6-1.3-.5-1.1 0-1.4.3-.6.6m5 0c.7.3 1.6.2 1.9-.1.4-.3-.2-.6-1.3-.5-1.1 0-1.4.3-.6.6m4 0c.7.3 1.6.2 1.9-.1.4-.3-.2-.6-1.3-.5-1.1 0-1.4.3-.6.6m4 0c.7.3 1.6.2 1.9-.1.4-.3-.2-.6-1.3-.5-1.1 0-1.4.3-.6.6m5 0c.7.3 1.6.2 1.9-.1.4-.3-.2-.6-1.3-.5-1.1 0-1.4.3-.6.6m6 0c1.2.2 3 .2 4 0 .9-.3-.1-.5-2.3-.4-2.2 0-3 .2-1.7.4m7 0c.7.3 1.6.2 1.9-.1.4-.3-.2-.6-1.3-.5-1.1 0-1.4.3-.6.6m5 0c.7.3 1.6.2 1.9-.1.4-.3-.2-.6-1.3-.5-1.1 0-1.4.3-.6.6m5 0c.7.3 1.6.2 1.9-.1.4-.3-.2-.6-1.3-.5-1.1 0-1.4.3-.6.6m4 0c.7.3 1.6.2 1.9-.1.4-.3-.2-.6-1.3-.5-1.1 0-1.4.3-.6.6m4 0c.7.3 1.6.2 1.9-.1.4-.3-.2-.6-1.3-.5-1.1 0-1.4.3-.6.6m4 0c.6.2 1.8.2 2.5 0 .6-.3.1-.5-1.3-.5s-1.9.2-1.2.5m5 0c.6.2 1.8.2 2.5 0 .6-.3.1-.5-1.3-.5s-1.9.2-1.2.5m5 0c.7.3 1.6.2 1.9-.1.4-.3-.2-.6-1.3-.5-1.1 0-1.4.3-.6.6m8 0c.6.2 1.8.2 2.5 0 .6-.3.1-.5-1.3-.5s-1.9.2-1.2.5m5 0c.7.3 1.6.2 1.9-.1.4-.3-.2-.6-1.3-.5-1.1 0-1.4.3-.6.6m5 0c.7.3 1.6.2 1.9-.1.4-.3-.2-.6-1.3-.5-1.1 0-1.4.3-.6.6m-932 341c.7.3 1.6.2 1.9-.1.4-.3-.2-.6-1.3-.5-1.1 0-1.4.3-.6.6m126 0c.7.3 1.6.2 1.9-.1.4-.3-.2-.6-1.3-.5-1.1 0-1.4.3-.6.6m67 0c.7.3 1.6.2 1.9-.1.4-.3-.2-.6-1.3-.5-1.1 0-1.4.3-.6.6m94 0c.7.3 1.6.2 1.9-.1.4-.3-.2-.6-1.3-.5-1.1 0-1.4.3-.6.6m5 0c.7.3 1.6.2 1.9-.1.4-.3-.2-.6-1.3-.5-1.1 0-1.4.3-.6.6m464 0c.7.3 1.6.2 1.9-.1.4-.3-.2-.6-1.3-.5-1.1 0-1.4.3-.6.6m5 0c.7.3 1.6.2 1.9-.1.4-.3-.2-.6-1.3-.5-1.1 0-1.4.3-.6.6m36 0c.7.3 1.6.2 1.9-.1.4-.3-.2-.6-1.3-.5-1.1 0-1.4.3-.6.6m310 0c.7.3 1.6.2 1.9-.1.4-.3-.2-.6-1.3-.5-1.1 0-1.4.3-.6.6"/><g fill="#BF0000" fill-opacity=".8" stroke-opacity=".8" stroke-width="0"><path d="M1592.9 1640.7c-1.3 1.6-1.2 1.7.4.4s2.1-2.1 1.3-2.1c-.2 0-1 .8-1.7 1.7m-477.9 83.4c0 .5.5.7 1 .4.6-.3 1-.8 1-1.1 0-.2-.4-.4-1-.4-.5 0-1 .5-1 1.1m596.9 33.2c.4.4 34.4.6 75.7.5l74.9-.3-75.7-.5c-41.6-.3-75.4-.2-74.9.3m-644.3 49.4c-.6 1.4-.5 1.5.5.6.7-.7 1-1.5.7-1.8s-.9.2-1.2 1.2m829.9 3.3c.9 1.6 1.8 3 2.1 3 .2 0-.2-1.4-1.1-3-.9-1.7-1.8-3-2.1-3-.2 0 .2 1.3 1.1 3m-833 2c-.9 1.6-1.3 3-1.1 3 .3 0 1.2-1.4 2.1-3 .9-1.7 1.3-3 1.1-3-.3 0-1.2 1.3-2.1 3m337.5 0c-.6 1.1-.8 2-.6 2 .3 0 1-.9 1.6-2s.8-2 .6-2c-.3 0-1 .9-1.6 2m499.5 5c.9 1.6 1.8 3 2.1 3 .2 0-.2-1.4-1.1-3-.9-1.7-1.8-3-2.1-3-.2 0 .2 1.3 1.1 3m-503 1c-.9 1.6-1.3 3-1.1 3 .3 0 1.2-1.4 2.1-3 .9-1.7 1.3-3 1.1-3-.3 0-1.2 1.3-2.1 3m-338 1c-.9 1.6-1.3 3-1.1 3 .3 0 1.2-1.4 2.1-3 .9-1.7 1.3-3 1.1-3-.3 0-1.2 1.3-2.1 3m844.5 4c.6 1.1 1.3 2 1.6 2 .2 0 0-.9-.6-2s-1.3-2-1.6-2c-.2 0 0 .9.6 2m-510.5 2c-.9 1.6-1.3 3-1.1 3 .3 0 1.2-1.4 2.1-3 .9-1.7 1.3-3 1.1-3-.3 0-1.2 1.3-2.1 3m-337.5 0c-.6 1.1-.8 2-.6 2 .3 0 1-.9 1.6-2s.8-2 .6-2c-.3 0-1 .9-1.6 2m-3.5 6c-.9 1.6-1.3 3-1.1 3 .3 0 1.2-1.4 2.1-3 .9-1.7 1.3-3 1.1-3-.3 0-1.2 1.3-2.1 3m855.5-1c.6 1.1 1.3 2 1.6 2 .2 0 0-.9-.6-2s-1.3-2-1.6-2c-.2 0 0 .9.6 2m-518 1c-.6 1.1-.8 2-.6 2 .3 0 1-.9 1.6-2s.8-2 .6-2c-.3 0-1 .9-1.6 2m521.5 5c.9 1.6 1.8 3 2.1 3 .2 0-.2-1.4-1.1-3-.9-1.7-1.8-3-2.1-3-.2 0 .2 1.3 1.1 3m-863 2c-.9 1.6-1.3 3-1.1 3 .3 0 1.2-1.4 2.1-3 .9-1.7 1.3-3 1.1-3-.3 0-1.2 1.3-2.1 3m337.5 0c-.6 1.1-.8 2-.6 2 .3 0 1-.9 1.6-2s.8-2 .6-2c-.3 0-1 .9-1.6 2m529.5 5c.9 1.6 1.8 3 2.1 3 .2 0-.2-1.4-1.1-3-.9-1.7-1.8-3-2.1-3-.2 0 .2 1.3 1.1 3m-533 1c-.9 1.6-1.3 3-1.1 3 .3 0 1.2-1.4 2.1-3 .9-1.7 1.3-3 1.1-3-.3 0-1.2 1.3-2.1 3m-338 1c-.9 1.6-1.3 3-1.1 3 .3 0 1.2-1.4 2.1-3 .9-1.7 1.3-3 1.1-3-.3 0-1.2 1.3-2.1 3m875 5c.9 1.6 1.8 3 2.1 3 .2 0-.2-1.4-1.1-3-.9-1.7-1.8-3-2.1-3-.2 0 .2 1.3 1.1 3m-541 1c-.9 1.6-1.3 3-1.1 3 .3 0 1.2-1.4 2.1-3 .9-1.7 1.3-3 1.1-3-.3 0-1.2 1.3-2.1 3m-337.5 0c-.6 1.1-.8 2-.6 2 .3 0 1-.9 1.6-2s.8-2 .6-2c-.3 0-1 .9-1.6 2m-3.5 6c-.9 1.6-1.3 3-1.1 3 .3 0 1.2-1.4 2.1-3 .9-1.7 1.3-3 1.1-3-.3 0-1.2 1.3-2.1 3m885.5-1c.6 1.1 1.3 2 1.6 2 .2 0 0-.9-.6-2s-1.3-2-1.6-2c-.2 0 0 .9.6 2m-548 1c-.6 1.1-.8 2-.6 2 .3 0 1-.9 1.6-2s.8-2 .6-2c-.3 0-1 .9-1.6 2m551.5 5c.9 1.6 1.8 3 2.1 3 .2 0-.2-1.4-1.1-3-.9-1.7-1.8-3-2.1-3-.2 0 .2 1.3 1.1 3m-893 2c-.9 1.6-1.3 3-1.1 3 .3 0 1.2-1.4 2.1-3 .9-1.7 1.3-3 1.1-3-.3 0-1.2 1.3-2.1 3m337.5 0c-.6 1.1-.8 2-.6 2 .3 0 1-.9 1.6-2s.8-2 .6-2c-.3 0-1 .9-1.6 2m559.5 5c.9 1.6 1.8 3 2.1 3 .2 0-.2-1.4-1.1-3-.9-1.7-1.8-3-2.1-3-.2 0 .2 1.3 1.1 3m-563 1c-.9 1.6-1.3 3-1.1 3 .3 0 1.2-1.4 2.1-3 .9-1.7 1.3-3 1.1-3-.3 0-1.2 1.3-2.1 3m-338 1c-.9 1.6-1.3 3-1.1 3 .3 0 1.2-1.4 2.1-3 .9-1.7 1.3-3 1.1-3-.3 0-1.2 1.3-2.1 3m906 6.5c1.5 2.7 3.2 5.4 3.8 6 .6.5-.2-1.3-1.8-4-1.5-2.8-3.2-5.5-3.8-6-.6-.6.2 1.2 1.8 4m-572-.5c-.9 1.6-1.3 3-1.1 3 .3 0 1.2-1.4 2.1-3 .9-1.7 1.3-3 1.1-3-.3 0-1.2 1.3-2.1 3m-337.5 0c-.6 1.1-.8 2-.6 2 .3 0 1-.9 1.6-2s.8-2 .6-2c-.3 0-1 .9-1.6 2m333.5 7c-.9 1.6-1.3 3-1.1 3 .3 0 1.2-1.4 2.1-3 .9-1.7 1.3-3 1.1-3-.3 0-1.2 1.3-2.1 3m-337.5 0c-.6 1.1-.8 2-.6 2 .3 0 1-.9 1.6-2s.8-2 .6-2c-.3 0-1 .9-1.6 2m-3.5 6c-.9 1.6-1.3 3-1.1 3 .3 0 1.2-1.4 2.1-3 .9-1.7 1.3-3 1.1-3-.3 0-1.2 1.3-2.1 3m923.5-1c.6 1.1 1.3 2 1.6 2 .2 0 0-.9-.6-2s-1.3-2-1.6-2c-.2 0 0 .9.6 2m-586 1c-.6 1.1-.8 2-.6 2 .3 0 1-.9 1.6-2s.8-2 .6-2c-.3 0-1 .9-1.6 2m589.5 5c.9 1.6 1.8 3 2.1 3 .2 0-.2-1.4-1.1-3-.9-1.7-1.8-3-2.1-3-.2 0 .2 1.3 1.1 3m-593 1c-.9 1.6-1.3 3-1.1 3 .3 0 1.2-1.4 2.1-3 .9-1.7 1.3-3 1.1-3-.3 0-1.2 1.3-2.1 3m-338 1c-.9 1.6-1.3 3-1.1 3 .3 0 1.2-1.4 2.1-3 .9-1.7 1.3-3 1.1-3-.3 0-1.2 1.3-2.1 3m935 5c.9 1.6 1.8 3 2.1 3 .2 0-.2-1.4-1.1-3-.9-1.7-1.8-3-2.1-3-.2 0 .2 1.3 1.1 3m-601 1c-.9 1.6-1.3 3-1.1 3 .3 0 1.2-1.4 2.1-3 .9-1.7 1.3-3 1.1-3-.3 0-1.2 1.3-2.1 3m-337.5 0c-.6 1.1-.8 2-.6 2 .3 0 1-.9 1.6-2s.8-2 .6-2c-.3 0-1 .9-1.6 2m942 5c.6 1.1 1.3 2 1.6 2 .2 0 0-.9-.6-2s-1.3-2-1.6-2c-.2 0 0 .9.6 2m-608 1c-.6 1.1-.8 2-.6 2 .3 0 1-.9 1.6-2s.8-2 .6-2c-.3 0-1 .9-1.6 2m-338 1c-.6 1.1-.8 2-.6 2 .3 0 1-.9 1.6-2s.8-2 .6-2c-.3 0-1 .9-1.6 2m949.5 4c.9 1.6 1.8 3 2.1 3 .2 0-.2-1.4-1.1-3-.9-1.7-1.8-3-2.1-3-.2 0 .2 1.3 1.1 3m-953 2c-.9 1.6-1.3 3-1.1 3 .3 0 1.2-1.4 2.1-3 .9-1.7 1.3-3 1.1-3-.3 0-1.2 1.3-2.1 3m337.5 0c-.6 1.1-.8 2-.6 2 .3 0 1-.9 1.6-2s.8-2 .6-2c-.3 0-1 .9-1.6 2m619.5 5c.9 1.6 1.8 3 2.1 3 .2 0-.2-1.4-1.1-3-.9-1.7-1.8-3-2.1-3-.2 0 .2 1.3 1.1 3m-623 1c-.9 1.6-1.3 3-1.1 3 .3 0 1.2-1.4 2.1-3 .9-1.7 1.3-3 1.1-3-.3 0-1.2 1.3-2.1 3m-338 1c-.9 1.6-1.3 3-1.1 3 .3 0 1.2-1.4 2.1-3 .9-1.7 1.3-3 1.1-3-.3 0-1.2 1.3-2.1 3m965 5c.9 1.6 1.8 3 2.1 3 .2 0-.2-1.4-1.1-3-.9-1.7-1.8-3-2.1-3-.2 0 .2 1.3 1.1 3m-631 1c-.9 1.6-1.3 3-1.1 3 .3 0 1.2-1.4 2.1-3 .9-1.7 1.3-3 1.1-3-.3 0-1.2 1.3-2.1 3m-337.5 0c-.6 1.1-.8 2-.6 2 .3 0 1-.9 1.6-2s.8-2 .6-2c-.3 0-1 .9-1.6 2m-3.5 6c-.9 1.6-1.3 3-1.1 3 .3 0 1.2-1.4 2.1-3 .9-1.7 1.3-3 1.1-3-.3 0-1.2 1.3-2.1 3m975.5-1c.6 1.1 1.3 2 1.6 2 .2 0 0-.9-.6-2s-1.3-2-1.6-2c-.2 0 0 .9.6 2m-638 1c-.6 1.1-.8 2-.6 2 .3 0 1-.9 1.6-2s.8-2 .6-2c-.3 0-1 .9-1.6 2m641.5 5c.9 1.6 1.8 3 2.1 3 .2 0-.2-1.4-1.1-3-.9-1.7-1.8-3-2.1-3-.2 0 .2 1.3 1.1 3m-983 2c-.9 1.6-1.3 3-1.1 3 .3 0 1.2-1.4 2.1-3 .9-1.7 1.3-3 1.1-3-.3 0-1.2 1.3-2.1 3m337.5 0c-.6 1.1-.8 2-.6 2 .3 0 1-.9 1.6-2s.8-2 .6-2c-.3 0-1 .9-1.6 2m649.5 5c.9 1.6 1.8 3 2.1 3 .2 0-.2-1.4-1.1-3-.9-1.7-1.8-3-2.1-3-.2 0 .2 1.3 1.1 3m-653 1c-.9 1.6-1.3 3-1.1 3 .3 0 1.2-1.4 2.1-3 .9-1.7 1.3-3 1.1-3-.3 0-1.2 1.3-2.1 3m-338 1c-.9 1.6-1.3 3-1.1 3 .3 0 1.2-1.4 2.1-3 .9-1.7 1.3-3 1.1-3-.3 0-1.2 1.3-2.1 3m995 5c.9 1.6 1.8 3 2.1 3 .2 0-.2-1.4-1.1-3-.9-1.7-1.8-3-2.1-3-.2 0 .2 1.3 1.1 3m-661 1c-.9 1.6-1.3 3-1.1 3 .3 0 1.2-1.4 2.1-3 .9-1.7 1.3-3 1.1-3-.3 0-1.2 1.3-2.1 3m-337.5 0c-.6 1.1-.8 2-.6 2 .3 0 1-.9 1.6-2s.8-2 .6-2c-.3 0-1 .9-1.6 2m-3.5 6c-.9 1.6-1.3 3-1.1 3 .3 0 1.2-1.4 2.1-3 .9-1.7 1.3-3 1.1-3-.3 0-1.2 1.3-2.1 3m1005.5-1c.6 1.1 1.3 2 1.6 2 .2 0 0-.9-.6-2s-1.3-2-1.6-2c-.2 0 0 .9.6 2m-668.5 2c-.9 1.6-1.3 3-1.1 3 .3 0 1.2-1.4 2.1-3 .9-1.7 1.3-3 1.1-3-.3 0-1.2 1.3-2.1 3m-341 6c-.9 1.6-1.3 3-1.1 3 .3 0 1.2-1.4 2.1-3 .9-1.7 1.3-3 1.1-3-.3 0-1.2 1.3-2.1 3m1013.5-1c.6 1.1 1.3 2 1.6 2 .2 0 0-.9-.6-2s-1.3-2-1.6-2c-.2 0 0 .9.6 2m-676 1c-.6 1.1-.8 2-.6 2 .3 0 1-.9 1.6-2s.8-2 .6-2c-.3 0-1 .9-1.6 2m679.5 5c.9 1.6 1.8 3 2.1 3 .2 0-.2-1.4-1.1-3-.9-1.7-1.8-3-2.1-3-.2 0 .2 1.3 1.1 3m-683 1c-.9 1.6-1.3 3-1.1 3 .3 0 1.2-1.4 2.1-3 .9-1.7 1.3-3 1.1-3-.3 0-1.2 1.3-2.1 3m-338 1c-.9 1.6-1.3 3-1.1 3 .3 0 1.2-1.4 2.1-3 .9-1.7 1.3-3 1.1-3-.3 0-1.2 1.3-2.1 3m1025 5c.9 1.6 1.8 3 2.1 3 .2 0-.2-1.4-1.1-3-.9-1.7-1.8-3-2.1-3-.2 0 .2 1.3 1.1 3m-691 1c-.9 1.6-1.3 3-1.1 3 .3 0 1.2-1.4 2.1-3 .9-1.7 1.3-3 1.1-3-.3 0-1.2 1.3-2.1 3m-337.5 0c-.6 1.1-.8 2-.6 2 .3 0 1-.9 1.6-2s.8-2 .6-2c-.3 0-1 .9-1.6 2m1032 5c.6 1.1 1.3 2 1.6 2 .2 0 0-.9-.6-2s-1.3-2-1.6-2c-.2 0 0 .9.6 2m-698.5 2c-.9 1.6-1.3 3-1.1 3 .3 0 1.2-1.4 2.1-3 .9-1.7 1.3-3 1.1-3-.3 0-1.2 1.3-2.1 3m-337.5 0c-.6 1.1-.8 2-.6 2 .3 0 1-.9 1.6-2s.8-2 .6-2c-.3 0-1 .9-1.6 2m-3.5 6c-.9 1.6-1.3 3-1.1 3 .3 0 1.2-1.4 2.1-3 .9-1.7 1.3-3 1.1-3-.3 0-1.2 1.3-2.1 3m1043.5-1c.6 1.1 1.3 2 1.6 2 .2 0 0-.9-.6-2s-1.3-2-1.6-2c-.2 0 0 .9.6 2m-706 1c-.6 1.1-.8 2-.6 2 .3 0 1-.9 1.6-2s.8-2 .6-2c-.3 0-1 .9-1.6 2m709.5 5c.9 1.6 1.8 3 2.1 3 .2 0-.2-1.4-1.1-3-.9-1.7-1.8-3-2.1-3-.2 0 .2 1.3 1.1 3m-713 1c-.9 1.6-1.3 3-1.1 3 .3 0 1.2-1.4 2.1-3 .9-1.7 1.3-3 1.1-3-.3 0-1.2 1.3-2.1 3m-338 1c-.9 1.6-1.3 3-1.1 3 .3 0 1.2-1.4 2.1-3 .9-1.7 1.3-3 1.1-3-.3 0-1.2 1.3-2.1 3m1055 5c.9 1.6 1.8 3 2.1 3 .2 0-.2-1.4-1.1-3-.9-1.7-1.8-3-2.1-3-.2 0 .2 1.3 1.1 3m-721 1c-.9 1.6-1.3 3-1.1 3 .3 0 1.2-1.4 2.1-3 .9-1.7 1.3-3 1.1-3-.3 0-1.2 1.3-2.1 3"/><path d="M951.1 2008.6c-1.2 2-2 3.8-1.8 4s1.4-1.4 2.6-3.6c2.8-5 2.1-5.3-.8-.4m1064.4 5.9c1.5 2.7 3.2 5.4 3.8 6 .6.5-.2-1.3-1.8-4-1.5-2.8-3.2-5.5-3.8-6-.6-.6.2 1.2 1.8 4m-729-2.4c-.4.6-.5 1.2-.2 1.5.2.3.7-.2 1-1.1.7-1.7.1-2-.8-.4m735 12.9c.9 1.6 1.8 3 2.1 3 .2 0-.2-1.4-1.1-3-.9-1.7-1.8-3-2.1-3-.2 0 .2 1.3 1.1 3m4 7c.9 1.6 1.8 3 2.1 3 .2 0-.2-1.4-1.1-3-.9-1.7-1.8-3-2.1-3-.2 0 .2 1.3 1.1 3m5 8.5c1.5 2.7 3.2 5.4 3.8 6 .6.5-.2-1.3-1.8-4-1.5-2.8-3.2-5.5-3.8-6-.6-.6.2 1.2 1.8 4m-301.7 56.2c1.2.2 3.2.2 4.5 0 1.2-.2.2-.4-2.3-.4s-3.5.2-2.2.4m13.5 0c3.7.2 9.6.2 13 0s.4-.3-6.8-.3c-7.1 0-9.9.1-6.2.3m34 0c8.1.2 21.3.2 29.5 0 8.1-.1 1.4-.3-14.8-.3s-22.9.2-14.7.3m54.5 0c5.7.2 14.7.2 20 0 5.3-.1.7-.3-10.3-.3s-15.4.2-9.7.3m44.5 0c8.1.2 21.3.2 29.5 0 8.1-.1 1.4-.3-14.8-.3s-22.9.2-14.7.3m45.5 0c.7.3 1.6.2 1.9-.1.4-.3-.2-.6-1.3-.5-1.1 0-1.4.3-.6.6m7.5 0c2.6.2 6.7.2 9 0s.2-.3-4.8-.3c-4.9 0-6.8.1-4.2.3m15.5 0c1.2.2 3.2.2 4.5 0 1.2-.2.2-.4-2.3-.4s-3.5.2-2.2.4m10 0c1.7.2 4.7.2 6.5 0 1.7-.2.3-.4-3.3-.4s-5 .2-3.2.4m14.5 0c2.6.2 6.8.2 9.5 0 2.6-.2.4-.3-4.8-.3s-7.4.1-4.7.3m15.5 0c.7.3 1.6.2 1.9-.1.4-.3-.2-.6-1.3-.5-1.1 0-1.4.3-.6.6m5 0c1.2.2 3.2.2 4.5 0 1.2-.2.2-.4-2.3-.4s-3.5.2-2.2.4m8 0c.6.2 1.8.2 2.5 0 .6-.3.1-.5-1.3-.5s-1.9.2-1.2.5m5 0c.7.3 1.6.2 1.9-.1.4-.3-.2-.6-1.3-.5-1.1 0-1.4.3-.6.6"/></g><path fill="#BF4040" fill-opacity=".2" d="M1224.8 2289.7c1.2.2 3.2.2 4.5 0 1.2-.2.2-.4-2.3-.4s-3.5.2-2.2.4m8 0c.7.3 1.6.2 1.9-.1.4-.3-.2-.6-1.3-.5-1.1 0-1.4.3-.6.6m5.5 0c1.5.2 3.7.2 5 0 1.2-.2 0-.4-2.8-.4-2.7 0-3.8.2-2.2.4m9 0c.9.2 2.5.2 3.5 0 .9-.3.1-.5-1.8-.5s-2.7.2-1.7.5m7 0c.9.2 2.3.2 3 0 .6-.3-.1-.5-1.8-.5-1.6 0-2.2.2-1.2.5m6.5 0c.6.2 1.8.2 2.5 0 .6-.3.1-.5-1.3-.5s-1.9.2-1.2.5m10 0c.6.2 1.8.2 2.5 0 .6-.3.1-.5-1.3-.5s-1.9.2-1.2.5m6 0c1.2.2 3 .2 4 0 .9-.3-.1-.5-2.3-.4-2.2 0-3 .2-1.7.4m13 0c.6.2 1.8.2 2.5 0 .6-.3.1-.5-1.3-.5s-1.9.2-1.2.5m7.5 0c1.5.2 3.9.2 5.5 0 1.5-.2.2-.4-2.8-.4s-4.3.2-2.7.4m13.5 0c.6.2 1.8.2 2.5 0 .6-.3.1-.5-1.3-.5s-1.9.2-1.2.5m7.5 0c2 .2 5.4.2 7.5 0 2-.2.3-.4-3.8-.4s-5.8.2-3.7.4m16 0c2.6.2 6.7.2 9 0s.2-.3-4.8-.3c-4.9 0-6.8.1-4.2.3m19.5 0c2.3.2 6.1.2 8.5 0 2.3-.2.4-.4-4.3-.4s-6.6.2-4.2.4m19 0c.7.3 1.6.2 1.9-.1.4-.3-.2-.6-1.3-.5-1.1 0-1.4.3-.6.6m8 0c2.3.2 5.9.2 8 0 2-.2.1-.4-4.3-.4s-6.1.2-3.7.4m15 0c.7.3 1.6.2 1.9-.1.4-.3-.2-.6-1.3-.5-1.1 0-1.4.3-.6.6m4 0c.6.2 1.8.2 2.5 0 .6-.3.1-.5-1.3-.5s-1.9.2-1.2.5m7 0c.7.3 1.6.2 1.9-.1.4-.3-.2-.6-1.3-.5-1.1 0-1.4.3-.6.6m7 0c2.3.2 6.1.2 8.5 0 2.3-.2.4-.4-4.3-.4s-6.6.2-4.2.4m14 0c.7.3 1.6.2 1.9-.1.4-.3-.2-.6-1.3-.5-1.1 0-1.4.3-.6.6m9 0c.7.3 1.6.2 1.9-.1.4-.3-.2-.6-1.3-.5-1.1 0-1.4.3-.6.6m9.5 0c.9.2 2.5.2 3.5 0 .9-.3.1-.5-1.8-.5s-2.7.2-1.7.5m6.5 0c.7.3 1.6.2 1.9-.1.4-.3-.2-.6-1.3-.5-1.1 0-1.4.3-.6.6m5.5 0c1.5.2 3.7.2 5 0 1.2-.2 0-.4-2.8-.4-2.7 0-3.8.2-2.2.4m22 0c1.5.2 3.7.2 5 0 1.2-.2 0-.4-2.8-.4-2.7 0-3.8.2-2.2.4m9 0c.9.2 2.5.2 3.5 0 .9-.3.1-.5-1.8-.5s-2.7.2-1.7.5m8 0c.9.2 2.5.2 3.5 0 .9-.3.1-.5-1.8-.5s-2.7.2-1.7.5m8.4 0c1.8.2 5 .2 7 0 2.1-.2.7-.4-3.2-.4-3.8 0-5.5.2-3.8.4m14.1 0c.6.2 1.8.2 2.5 0 .6-.3.1-.5-1.3-.5s-1.9.2-1.2.5m11.5 0c.9.2 2.5.2 3.5 0 .9-.3.1-.5-1.8-.5s-2.7.2-1.7.5m8.5 0c1.8.2 4.5.2 6 0s0-.4-3.3-.4-4.5.2-2.7.4m12 0c.7.3 1.6.2 1.9-.1.4-.3-.2-.6-1.3-.5-1.1 0-1.4.3-.6.6m5.5 0c.9.2 2.3.2 3 0 .6-.3-.1-.5-1.8-.5-1.6 0-2.2.2-1.2.5m6 0c.9.2 2.3.2 3 0 .6-.3-.1-.5-1.8-.5-1.6 0-2.2.2-1.2.5m6 0c.9.2 2.5.2 3.5 0 .9-.3.1-.5-1.8-.5s-2.7.2-1.7.5m6.5 0c.6.2 1.8.2 2.5 0 .6-.3.1-.5-1.3-.5s-1.9.2-1.2.5m8.5 0c1.5.2 3.9.2 5.5 0 1.5-.2.2-.4-2.8-.4s-4.3.2-2.7.4m10 0c.9.2 2.3.2 3 0 .6-.3-.1-.5-1.8-.5-1.6 0-2.2.2-1.2.5m5.5 0c.7.3 1.6.2 1.9-.1.4-.3-.2-.6-1.3-.5-1.1 0-1.4.3-.6.6m9 0c2.3.2 6.1.2 8.5 0 2.3-.2.4-.4-4.3-.4s-6.6.2-4.2.4m16.5 0c1.5.2 3.9.2 5.5 0 1.5-.2.2-.4-2.8-.4s-4.3.2-2.7.4m9.5 0c.6.2 1.8.2 2.5 0 .6-.3.1-.5-1.3-.5s-1.9.2-1.2.5m5.5 0c.9.2 2.5.2 3.5 0 .9-.3.1-.5-1.8-.5s-2.7.2-1.7.5m8.5 0c.7.3 1.6.2 1.9-.1.4-.3-.2-.6-1.3-.5-1.1 0-1.4.3-.6.6m15 0c.6.2 1.8.2 2.5 0 .6-.3.1-.5-1.3-.5s-1.9.2-1.2.5m5.5 0c.9.2 2.3.2 3 0 .6-.3-.1-.5-1.8-.5-1.6 0-2.2.2-1.2.5m9.5 0c1.2.2 3 .2 4 0 .9-.3-.1-.5-2.3-.4-2.2 0-3 .2-1.7.4m8 0c.6.2 1.8.2 2.5 0 .6-.3.1-.5-1.3-.5s-1.9.2-1.2.5m5 0c.6.2 1.8.2 2.5 0 .6-.3.1-.5-1.3-.5s-1.9.2-1.2.5m5 0c.6.2 1.8.2 2.5 0 .6-.3.1-.5-1.3-.5s-1.9.2-1.2.5m10.5 0c1.5.2 3.9.2 5.5 0 1.5-.2.2-.4-2.8-.4s-4.3.2-2.7.4m9.5 0c.6.2 1.8.2 2.5 0 .6-.3.1-.5-1.3-.5s-1.9.2-1.2.5m8.5 0c.9.2 2.3.2 3 0 .6-.3-.1-.5-1.8-.5-1.6 0-2.2.2-1.2.5m6.5 0c1.2.2 3 .2 4 0 .9-.3-.1-.5-2.3-.4-2.2 0-3 .2-1.7.4m13.5 0c1.5.2 3.7.2 5 0 1.2-.2 0-.4-2.8-.4-2.7 0-3.8.2-2.2.4m12.5 0c.7.3 1.6.2 1.9-.1.4-.3-.2-.6-1.3-.5-1.1 0-1.4.3-.6.6m11.5 0c.9.2 2.3.2 3 0 .6-.3-.1-.5-1.8-.5-1.6 0-2.2.2-1.2.5"/></svg>